<mxfile host="Electron" modified="2024-06-11T07:45:00.413Z" agent="Mozilla/5.0 (Windows NT 10.0; Win64; x64) AppleWebKit/537.36 (KHTML, like Gecko) draw.io/21.4.0 Chrome/112.0.5615.204 Electron/24.5.1 Safari/537.36" etag="3820HP0d3fH4AVaeYqnB" version="21.4.0" type="device" pages="5">
  <diagram name="第 1 页" id="txkFOQKmWQ4BIrf9yuJa">
    <mxGraphModel dx="2375" dy="902" grid="1" gridSize="10" guides="1" tooltips="1" connect="1" arrows="1" fold="1" page="1" pageScale="1" pageWidth="827" pageHeight="1169" math="0" shadow="0">
      <root>
        <mxCell id="0" />
        <mxCell id="1" parent="0" />
        <mxCell id="FmR40dDLua0OtCe9K8xS-6" value="" style="rounded=1;orthogonalLoop=1;jettySize=auto;html=1;fillColor=#f8cecc;strokeColor=#b85450;entryX=1;entryY=0.5;entryDx=0;entryDy=0;" parent="1" source="FmR40dDLua0OtCe9K8xS-3" target="FmR40dDLua0OtCe9K8xS-5" edge="1">
          <mxGeometry relative="1" as="geometry" />
        </mxCell>
        <mxCell id="FmR40dDLua0OtCe9K8xS-7" value="n:1" style="edgeLabel;html=1;align=center;verticalAlign=middle;resizable=0;points=[];rounded=1;" parent="FmR40dDLua0OtCe9K8xS-6" vertex="1" connectable="0">
          <mxGeometry x="-0.2747" y="1" relative="1" as="geometry">
            <mxPoint as="offset" />
          </mxGeometry>
        </mxCell>
        <mxCell id="FmR40dDLua0OtCe9K8xS-9" value="" style="edgeStyle=orthogonalEdgeStyle;rounded=1;orthogonalLoop=1;jettySize=auto;html=1;endArrow=none;endFill=0;" parent="1" source="FmR40dDLua0OtCe9K8xS-3" target="FmR40dDLua0OtCe9K8xS-8" edge="1">
          <mxGeometry relative="1" as="geometry" />
        </mxCell>
        <mxCell id="FmR40dDLua0OtCe9K8xS-10" value="合作" style="edgeLabel;html=1;align=center;verticalAlign=middle;resizable=0;points=[];rounded=1;" parent="FmR40dDLua0OtCe9K8xS-9" vertex="1" connectable="0">
          <mxGeometry x="-0.24" y="1" relative="1" as="geometry">
            <mxPoint x="14" y="1" as="offset" />
          </mxGeometry>
        </mxCell>
        <mxCell id="FmR40dDLua0OtCe9K8xS-13" style="rounded=1;orthogonalLoop=1;jettySize=auto;html=1;exitX=0;exitY=0.5;exitDx=0;exitDy=0;entryX=1;entryY=0.5;entryDx=0;entryDy=0;fillColor=#f8cecc;strokeColor=#b85450;" parent="1" source="FmR40dDLua0OtCe9K8xS-3" target="FmR40dDLua0OtCe9K8xS-11" edge="1">
          <mxGeometry relative="1" as="geometry" />
        </mxCell>
        <mxCell id="FmR40dDLua0OtCe9K8xS-14" value="n:1" style="edgeLabel;html=1;align=center;verticalAlign=middle;resizable=0;points=[];" parent="FmR40dDLua0OtCe9K8xS-13" vertex="1" connectable="0">
          <mxGeometry x="-0.238" relative="1" as="geometry">
            <mxPoint y="-1" as="offset" />
          </mxGeometry>
        </mxCell>
        <mxCell id="FmR40dDLua0OtCe9K8xS-16" style="rounded=1;orthogonalLoop=1;jettySize=auto;html=1;exitX=0;exitY=0.5;exitDx=0;exitDy=0;entryX=1;entryY=0.5;entryDx=0;entryDy=0;fillColor=#f8cecc;strokeColor=#b85450;" parent="1" source="FmR40dDLua0OtCe9K8xS-3" target="FmR40dDLua0OtCe9K8xS-15" edge="1">
          <mxGeometry relative="1" as="geometry" />
        </mxCell>
        <mxCell id="FmR40dDLua0OtCe9K8xS-17" value="n:1" style="edgeLabel;html=1;align=center;verticalAlign=middle;resizable=0;points=[];" parent="FmR40dDLua0OtCe9K8xS-16" vertex="1" connectable="0">
          <mxGeometry x="-0.2841" y="2" relative="1" as="geometry">
            <mxPoint as="offset" />
          </mxGeometry>
        </mxCell>
        <mxCell id="FmR40dDLua0OtCe9K8xS-19" style="rounded=1;orthogonalLoop=1;jettySize=auto;html=1;exitX=0;exitY=0;exitDx=0;exitDy=0;entryX=1;entryY=0.5;entryDx=0;entryDy=0;fillColor=#f8cecc;strokeColor=#b85450;" parent="1" source="FmR40dDLua0OtCe9K8xS-3" target="FmR40dDLua0OtCe9K8xS-18" edge="1">
          <mxGeometry relative="1" as="geometry" />
        </mxCell>
        <mxCell id="FmR40dDLua0OtCe9K8xS-21" value="n:1" style="edgeLabel;html=1;align=center;verticalAlign=middle;resizable=0;points=[];" parent="FmR40dDLua0OtCe9K8xS-19" vertex="1" connectable="0">
          <mxGeometry x="-0.3605" y="2" relative="1" as="geometry">
            <mxPoint y="-1" as="offset" />
          </mxGeometry>
        </mxCell>
        <mxCell id="FmR40dDLua0OtCe9K8xS-3" value="学者" style="ellipse;whiteSpace=wrap;html=1;aspect=fixed;fontStyle=1;rounded=1;fillColor=#f8cecc;strokeColor=#b85450;" parent="1" vertex="1">
          <mxGeometry x="370" y="420" width="60" height="60" as="geometry" />
        </mxCell>
        <mxCell id="FmR40dDLua0OtCe9K8xS-4" value="文献" style="ellipse;whiteSpace=wrap;html=1;aspect=fixed;fontStyle=1;rounded=1;" parent="1" vertex="1">
          <mxGeometry x="760" y="420" width="60" height="60" as="geometry" />
        </mxCell>
        <mxCell id="FmR40dDLua0OtCe9K8xS-5" value="工作经历" style="whiteSpace=wrap;html=1;fontStyle=1;rounded=1;fillColor=#f8cecc;strokeColor=#b85450;" parent="1" vertex="1">
          <mxGeometry x="80" y="370" width="120" height="30" as="geometry" />
        </mxCell>
        <mxCell id="FmR40dDLua0OtCe9K8xS-22" style="edgeStyle=orthogonalEdgeStyle;rounded=1;orthogonalLoop=1;jettySize=auto;html=1;exitX=1;exitY=0.5;exitDx=0;exitDy=0;" parent="1" source="FmR40dDLua0OtCe9K8xS-8" target="FmR40dDLua0OtCe9K8xS-4" edge="1">
          <mxGeometry relative="1" as="geometry" />
        </mxCell>
        <mxCell id="FmR40dDLua0OtCe9K8xS-23" value="发布" style="edgeLabel;html=1;align=center;verticalAlign=middle;resizable=0;points=[];" parent="FmR40dDLua0OtCe9K8xS-22" vertex="1" connectable="0">
          <mxGeometry x="-0.232" y="1" relative="1" as="geometry">
            <mxPoint as="offset" />
          </mxGeometry>
        </mxCell>
        <mxCell id="FmR40dDLua0OtCe9K8xS-8" value="学者" style="ellipse;whiteSpace=wrap;html=1;aspect=fixed;fontStyle=1;rounded=1;fillColor=#f8cecc;strokeColor=#b85450;" parent="1" vertex="1">
          <mxGeometry x="550" y="420" width="60" height="60" as="geometry" />
        </mxCell>
        <mxCell id="FmR40dDLua0OtCe9K8xS-11" value="教育经历" style="whiteSpace=wrap;html=1;fontStyle=1;rounded=1;fillColor=#f8cecc;strokeColor=#b85450;" parent="1" vertex="1">
          <mxGeometry x="80" y="465" width="120" height="30" as="geometry" />
        </mxCell>
        <mxCell id="FmR40dDLua0OtCe9K8xS-25" value="" style="edgeStyle=orthogonalEdgeStyle;rounded=1;orthogonalLoop=1;jettySize=auto;html=1;fillColor=#f8cecc;strokeColor=#b85450;" parent="1" source="FmR40dDLua0OtCe9K8xS-15" target="FmR40dDLua0OtCe9K8xS-24" edge="1">
          <mxGeometry relative="1" as="geometry" />
        </mxCell>
        <mxCell id="FmR40dDLua0OtCe9K8xS-15" value="投稿期刊" style="whiteSpace=wrap;html=1;fontStyle=1;rounded=1;fillColor=#f8cecc;strokeColor=#b85450;" parent="1" vertex="1">
          <mxGeometry x="80" y="565" width="120" height="30" as="geometry" />
        </mxCell>
        <mxCell id="FmR40dDLua0OtCe9K8xS-18" value="学术任职经历" style="whiteSpace=wrap;html=1;fontStyle=1;rounded=1;fillColor=#f8cecc;strokeColor=#b85450;" parent="1" vertex="1">
          <mxGeometry x="80" y="280" width="120" height="30" as="geometry" />
        </mxCell>
        <mxCell id="FmR40dDLua0OtCe9K8xS-24" value="期刊影响" style="whiteSpace=wrap;html=1;fontStyle=1;rounded=1;fillColor=#f8cecc;strokeColor=#b85450;" parent="1" vertex="1">
          <mxGeometry x="-120" y="565" width="120" height="30" as="geometry" />
        </mxCell>
      </root>
    </mxGraphModel>
  </diagram>
  <diagram id="9gqxto8P7jPKB5amJiP5" name="第 2 页">
    <mxGraphModel dx="1548" dy="902" grid="1" gridSize="10" guides="1" tooltips="1" connect="1" arrows="1" fold="1" page="1" pageScale="1" pageWidth="827" pageHeight="1169" math="0" shadow="0">
      <root>
        <mxCell id="0" />
        <mxCell id="1" parent="0" />
        <mxCell id="DeZeNAVlsSmMyQAj9RyE-1" value="中科院" style="swimlane;whiteSpace=wrap;html=1;" vertex="1" parent="1">
          <mxGeometry x="40" y="185" width="180" height="555" as="geometry" />
        </mxCell>
        <mxCell id="DeZeNAVlsSmMyQAj9RyE-2" value="pubscholar 页面" style="rounded=0;whiteSpace=wrap;html=1;fillColor=#d5e8d4;strokeColor=#82b366;" vertex="1" parent="DeZeNAVlsSmMyQAj9RyE-1">
          <mxGeometry x="34" y="400" width="120" height="60" as="geometry" />
        </mxCell>
        <mxCell id="DeZeNAVlsSmMyQAj9RyE-4" value="推荐服务" style="swimlane;whiteSpace=wrap;html=1;" vertex="1" parent="1">
          <mxGeometry x="220" y="185" width="180" height="555" as="geometry" />
        </mxCell>
        <mxCell id="DeZeNAVlsSmMyQAj9RyE-20" value="" style="rounded=0;whiteSpace=wrap;html=1;dashed=1;strokeWidth=1.5;" vertex="1" parent="DeZeNAVlsSmMyQAj9RyE-4">
          <mxGeometry x="20" y="180" width="150" height="300" as="geometry" />
        </mxCell>
        <mxCell id="DeZeNAVlsSmMyQAj9RyE-5" value="根据user_id hash&lt;br&gt;从pg获取推荐结果" style="rounded=0;whiteSpace=wrap;html=1;fillColor=#d5e8d4;strokeColor=#82b366;" vertex="1" parent="DeZeNAVlsSmMyQAj9RyE-4">
          <mxGeometry x="34" y="400" width="120" height="60" as="geometry" />
        </mxCell>
        <mxCell id="DeZeNAVlsSmMyQAj9RyE-6" value="本地触发跑任务结果&lt;br&gt;调用算法部署的模型" style="rounded=0;whiteSpace=wrap;html=1;fillColor=#d5e8d4;strokeColor=#82b366;" vertex="1" parent="DeZeNAVlsSmMyQAj9RyE-4">
          <mxGeometry x="34" y="85" width="120" height="60" as="geometry" />
        </mxCell>
        <mxCell id="DeZeNAVlsSmMyQAj9RyE-7" value="推荐结果数据（pg）" style="shape=cylinder3;whiteSpace=wrap;html=1;boundedLbl=1;backgroundOutline=1;size=15;fillColor=#d5e8d4;strokeColor=#82b366;" vertex="1" parent="DeZeNAVlsSmMyQAj9RyE-4">
          <mxGeometry x="54" y="295" width="80" height="60" as="geometry" />
        </mxCell>
        <mxCell id="DeZeNAVlsSmMyQAj9RyE-8" value="" style="edgeStyle=orthogonalEdgeStyle;rounded=0;orthogonalLoop=1;jettySize=auto;html=1;fillColor=#d5e8d4;strokeColor=#82b366;" edge="1" parent="DeZeNAVlsSmMyQAj9RyE-4" source="DeZeNAVlsSmMyQAj9RyE-9" target="DeZeNAVlsSmMyQAj9RyE-7">
          <mxGeometry relative="1" as="geometry" />
        </mxCell>
        <mxCell id="DeZeNAVlsSmMyQAj9RyE-9" value="后端排序&lt;br&gt;根据user_id hash分表" style="rounded=0;whiteSpace=wrap;html=1;fillColor=#d5e8d4;strokeColor=#82b366;" vertex="1" parent="DeZeNAVlsSmMyQAj9RyE-4">
          <mxGeometry x="34" y="195" width="120" height="60" as="geometry" />
        </mxCell>
        <mxCell id="DeZeNAVlsSmMyQAj9RyE-11" value="特征服务" style="swimlane;whiteSpace=wrap;html=1;" vertex="1" parent="1">
          <mxGeometry x="400" y="185" width="180" height="555" as="geometry" />
        </mxCell>
        <mxCell id="DeZeNAVlsSmMyQAj9RyE-13" value="模型推理接口" style="rounded=0;whiteSpace=wrap;html=1;fillColor=#d5e8d4;strokeColor=#82b366;" vertex="1" parent="DeZeNAVlsSmMyQAj9RyE-11">
          <mxGeometry x="34" y="85" width="120" height="60" as="geometry" />
        </mxCell>
        <mxCell id="DeZeNAVlsSmMyQAj9RyE-16" value="" style="edgeStyle=orthogonalEdgeStyle;rounded=0;orthogonalLoop=1;jettySize=auto;html=1;fillColor=#d5e8d4;strokeColor=#82b366;" edge="1" parent="1" source="DeZeNAVlsSmMyQAj9RyE-2" target="DeZeNAVlsSmMyQAj9RyE-5">
          <mxGeometry relative="1" as="geometry" />
        </mxCell>
        <mxCell id="DeZeNAVlsSmMyQAj9RyE-17" style="edgeStyle=orthogonalEdgeStyle;rounded=0;orthogonalLoop=1;jettySize=auto;html=1;exitX=1;exitY=0.5;exitDx=0;exitDy=0;fillColor=#d5e8d4;strokeColor=#82b366;" edge="1" parent="1" source="DeZeNAVlsSmMyQAj9RyE-6" target="DeZeNAVlsSmMyQAj9RyE-13">
          <mxGeometry relative="1" as="geometry" />
        </mxCell>
        <mxCell id="DeZeNAVlsSmMyQAj9RyE-19" style="edgeStyle=orthogonalEdgeStyle;rounded=0;orthogonalLoop=1;jettySize=auto;html=1;exitX=0.5;exitY=1;exitDx=0;exitDy=0;entryX=0.5;entryY=0;entryDx=0;entryDy=0;fillColor=#d5e8d4;strokeColor=#82b366;" edge="1" parent="1" source="DeZeNAVlsSmMyQAj9RyE-13" target="DeZeNAVlsSmMyQAj9RyE-9">
          <mxGeometry relative="1" as="geometry" />
        </mxCell>
      </root>
    </mxGraphModel>
  </diagram>
  <diagram id="MuQ7LE1RB-V0MYLugdUD" name="第 3 页">
    <mxGraphModel dx="1548" dy="902" grid="1" gridSize="10" guides="1" tooltips="1" connect="1" arrows="1" fold="1" page="1" pageScale="1" pageWidth="827" pageHeight="1169" math="0" shadow="0">
      <root>
        <mxCell id="0" />
        <mxCell id="1" parent="0" />
        <mxCell id="Ah1HycV5H3-RFOesz4HI-1" value="中科院" style="swimlane;whiteSpace=wrap;html=1;" vertex="1" parent="1">
          <mxGeometry x="40" y="185" width="180" height="555" as="geometry" />
        </mxCell>
        <mxCell id="Ah1HycV5H3-RFOesz4HI-2" value="pubscholar 页面" style="rounded=0;whiteSpace=wrap;html=1;fillColor=#d5e8d4;strokeColor=#82b366;" vertex="1" parent="Ah1HycV5H3-RFOesz4HI-1">
          <mxGeometry x="34" y="400" width="120" height="60" as="geometry" />
        </mxCell>
        <mxCell id="Ah1HycV5H3-RFOesz4HI-15" value="pubscholar 用户登录" style="rounded=0;whiteSpace=wrap;html=1;fillColor=#fff2cc;strokeColor=#d6b656;" vertex="1" parent="Ah1HycV5H3-RFOesz4HI-1">
          <mxGeometry x="34" y="85" width="120" height="60" as="geometry" />
        </mxCell>
        <mxCell id="Ah1HycV5H3-RFOesz4HI-3" value="推荐服务" style="swimlane;whiteSpace=wrap;html=1;" vertex="1" parent="1">
          <mxGeometry x="220" y="185" width="180" height="555" as="geometry" />
        </mxCell>
        <mxCell id="Ah1HycV5H3-RFOesz4HI-4" value="" style="rounded=0;whiteSpace=wrap;html=1;dashed=1;strokeWidth=1.5;" vertex="1" parent="Ah1HycV5H3-RFOesz4HI-3">
          <mxGeometry x="20" y="180" width="150" height="300" as="geometry" />
        </mxCell>
        <mxCell id="Ah1HycV5H3-RFOesz4HI-5" value="根据user_id hash&lt;br&gt;从pg获取推荐结果" style="rounded=0;whiteSpace=wrap;html=1;fillColor=#d5e8d4;strokeColor=#82b366;" vertex="1" parent="Ah1HycV5H3-RFOesz4HI-3">
          <mxGeometry x="34" y="400" width="120" height="60" as="geometry" />
        </mxCell>
        <mxCell id="Ah1HycV5H3-RFOesz4HI-6" value="触发跑任务结果&lt;br&gt;调用算法部署的模型" style="rounded=0;whiteSpace=wrap;html=1;fillColor=#d5e8d4;strokeColor=#82b366;" vertex="1" parent="Ah1HycV5H3-RFOesz4HI-3">
          <mxGeometry x="34" y="85" width="120" height="60" as="geometry" />
        </mxCell>
        <mxCell id="Ah1HycV5H3-RFOesz4HI-7" value="推荐结果数据（pg）" style="shape=cylinder3;whiteSpace=wrap;html=1;boundedLbl=1;backgroundOutline=1;size=15;fillColor=#d5e8d4;strokeColor=#82b366;" vertex="1" parent="Ah1HycV5H3-RFOesz4HI-3">
          <mxGeometry x="54" y="295" width="80" height="60" as="geometry" />
        </mxCell>
        <mxCell id="Ah1HycV5H3-RFOesz4HI-8" value="" style="edgeStyle=orthogonalEdgeStyle;rounded=0;orthogonalLoop=1;jettySize=auto;html=1;fillColor=#d5e8d4;strokeColor=#82b366;" edge="1" parent="Ah1HycV5H3-RFOesz4HI-3" source="Ah1HycV5H3-RFOesz4HI-9" target="Ah1HycV5H3-RFOesz4HI-7">
          <mxGeometry relative="1" as="geometry" />
        </mxCell>
        <mxCell id="Ah1HycV5H3-RFOesz4HI-9" value="后端排序&lt;br&gt;根据user_id hash分表" style="rounded=0;whiteSpace=wrap;html=1;fillColor=#d5e8d4;strokeColor=#82b366;" vertex="1" parent="Ah1HycV5H3-RFOesz4HI-3">
          <mxGeometry x="34" y="195" width="120" height="60" as="geometry" />
        </mxCell>
        <mxCell id="Ah1HycV5H3-RFOesz4HI-10" value="特征服务" style="swimlane;whiteSpace=wrap;html=1;" vertex="1" parent="1">
          <mxGeometry x="400" y="185" width="180" height="555" as="geometry" />
        </mxCell>
        <mxCell id="Ah1HycV5H3-RFOesz4HI-11" value="模型推理接口" style="rounded=0;whiteSpace=wrap;html=1;fillColor=#d5e8d4;strokeColor=#82b366;" vertex="1" parent="Ah1HycV5H3-RFOesz4HI-10">
          <mxGeometry x="34" y="85" width="120" height="60" as="geometry" />
        </mxCell>
        <mxCell id="Ah1HycV5H3-RFOesz4HI-12" value="" style="edgeStyle=orthogonalEdgeStyle;rounded=0;orthogonalLoop=1;jettySize=auto;html=1;fillColor=#d5e8d4;strokeColor=#82b366;" edge="1" parent="1" source="Ah1HycV5H3-RFOesz4HI-2" target="Ah1HycV5H3-RFOesz4HI-5">
          <mxGeometry relative="1" as="geometry" />
        </mxCell>
        <mxCell id="Ah1HycV5H3-RFOesz4HI-13" style="edgeStyle=orthogonalEdgeStyle;rounded=0;orthogonalLoop=1;jettySize=auto;html=1;exitX=1;exitY=0.5;exitDx=0;exitDy=0;fillColor=#d5e8d4;strokeColor=#82b366;" edge="1" parent="1" source="Ah1HycV5H3-RFOesz4HI-6" target="Ah1HycV5H3-RFOesz4HI-11">
          <mxGeometry relative="1" as="geometry" />
        </mxCell>
        <mxCell id="Ah1HycV5H3-RFOesz4HI-14" style="edgeStyle=orthogonalEdgeStyle;rounded=0;orthogonalLoop=1;jettySize=auto;html=1;exitX=0.5;exitY=1;exitDx=0;exitDy=0;entryX=0.5;entryY=0;entryDx=0;entryDy=0;fillColor=#d5e8d4;strokeColor=#82b366;" edge="1" parent="1" source="Ah1HycV5H3-RFOesz4HI-11" target="Ah1HycV5H3-RFOesz4HI-9">
          <mxGeometry relative="1" as="geometry" />
        </mxCell>
        <mxCell id="Ah1HycV5H3-RFOesz4HI-16" value="" style="edgeStyle=orthogonalEdgeStyle;rounded=0;orthogonalLoop=1;jettySize=auto;html=1;" edge="1" parent="1" source="Ah1HycV5H3-RFOesz4HI-15" target="Ah1HycV5H3-RFOesz4HI-6">
          <mxGeometry relative="1" as="geometry" />
        </mxCell>
      </root>
    </mxGraphModel>
  </diagram>
  <diagram id="GANECPktI7BE31YShMO0" name="sharding">
    <mxGraphModel dx="1548" dy="902" grid="1" gridSize="10" guides="1" tooltips="1" connect="1" arrows="1" fold="1" page="1" pageScale="1" pageWidth="827" pageHeight="1169" math="0" shadow="0">
      <root>
        <mxCell id="0" />
        <mxCell id="1" parent="0" />
        <mxCell id="14eNBeR4B6eqoO1mEAWG-3" value="" style="edgeStyle=orthogonalEdgeStyle;rounded=0;orthogonalLoop=1;jettySize=auto;html=1;" edge="1" parent="1" source="14eNBeR4B6eqoO1mEAWG-1" target="14eNBeR4B6eqoO1mEAWG-2">
          <mxGeometry relative="1" as="geometry" />
        </mxCell>
        <mxCell id="14eNBeR4B6eqoO1mEAWG-1" value="user_id请求接口" style="rounded=0;whiteSpace=wrap;html=1;fillColor=#d5e8d4;strokeColor=#82b366;" vertex="1" parent="1">
          <mxGeometry x="40" y="450" width="120" height="50" as="geometry" />
        </mxCell>
        <mxCell id="14eNBeR4B6eqoO1mEAWG-5" value="" style="edgeStyle=orthogonalEdgeStyle;rounded=0;orthogonalLoop=1;jettySize=auto;html=1;" edge="1" parent="1" source="14eNBeR4B6eqoO1mEAWG-2" target="14eNBeR4B6eqoO1mEAWG-4">
          <mxGeometry relative="1" as="geometry" />
        </mxCell>
        <mxCell id="14eNBeR4B6eqoO1mEAWG-2" value="应用使用gorm查询" style="rounded=0;whiteSpace=wrap;html=1;fillColor=#d5e8d4;strokeColor=#82b366;" vertex="1" parent="1">
          <mxGeometry x="240" y="450" width="120" height="50" as="geometry" />
        </mxCell>
        <mxCell id="14eNBeR4B6eqoO1mEAWG-13" style="edgeStyle=orthogonalEdgeStyle;orthogonalLoop=1;jettySize=auto;html=1;exitX=1;exitY=0.5;exitDx=0;exitDy=0;entryX=0;entryY=0.5;entryDx=0;entryDy=0;curved=1;" edge="1" parent="1" source="14eNBeR4B6eqoO1mEAWG-4" target="14eNBeR4B6eqoO1mEAWG-10">
          <mxGeometry relative="1" as="geometry" />
        </mxCell>
        <mxCell id="14eNBeR4B6eqoO1mEAWG-14" style="edgeStyle=orthogonalEdgeStyle;orthogonalLoop=1;jettySize=auto;html=1;exitX=1;exitY=0.5;exitDx=0;exitDy=0;curved=1;" edge="1" parent="1" source="14eNBeR4B6eqoO1mEAWG-4" target="14eNBeR4B6eqoO1mEAWG-6">
          <mxGeometry relative="1" as="geometry" />
        </mxCell>
        <mxCell id="14eNBeR4B6eqoO1mEAWG-15" style="edgeStyle=orthogonalEdgeStyle;orthogonalLoop=1;jettySize=auto;html=1;exitX=1;exitY=0.5;exitDx=0;exitDy=0;entryX=0;entryY=0.5;entryDx=0;entryDy=0;curved=1;" edge="1" parent="1" source="14eNBeR4B6eqoO1mEAWG-4" target="14eNBeR4B6eqoO1mEAWG-11">
          <mxGeometry relative="1" as="geometry" />
        </mxCell>
        <mxCell id="14eNBeR4B6eqoO1mEAWG-16" style="edgeStyle=orthogonalEdgeStyle;orthogonalLoop=1;jettySize=auto;html=1;exitX=1;exitY=0.5;exitDx=0;exitDy=0;entryX=0;entryY=0.5;entryDx=0;entryDy=0;curved=1;" edge="1" parent="1" source="14eNBeR4B6eqoO1mEAWG-4" target="14eNBeR4B6eqoO1mEAWG-12">
          <mxGeometry relative="1" as="geometry" />
        </mxCell>
        <mxCell id="14eNBeR4B6eqoO1mEAWG-4" value="gorm拦截器拦截后&lt;br&gt;hash计算Index" style="rounded=0;whiteSpace=wrap;html=1;fillColor=#f8cecc;strokeColor=#b85450;" vertex="1" parent="1">
          <mxGeometry x="440" y="450" width="120" height="50" as="geometry" />
        </mxCell>
        <mxCell id="14eNBeR4B6eqoO1mEAWG-6" value="airec_server.recommend_result_002" style="rounded=0;whiteSpace=wrap;html=1;fillColor=#f5f5f5;fontColor=#333333;strokeColor=#666666;" vertex="1" parent="1">
          <mxGeometry x="680" y="435" width="260" height="30" as="geometry" />
        </mxCell>
        <mxCell id="14eNBeR4B6eqoO1mEAWG-10" value="airec_server.recommend_result_001" style="rounded=0;whiteSpace=wrap;html=1;fillColor=#f5f5f5;fontColor=#333333;strokeColor=#666666;" vertex="1" parent="1">
          <mxGeometry x="680" y="375" width="260" height="30" as="geometry" />
        </mxCell>
        <mxCell id="14eNBeR4B6eqoO1mEAWG-11" value="&lt;b&gt;......&lt;/b&gt;" style="rounded=0;whiteSpace=wrap;html=1;fillColor=#f5f5f5;fontColor=#333333;strokeColor=#666666;" vertex="1" parent="1">
          <mxGeometry x="680" y="495" width="260" height="30" as="geometry" />
        </mxCell>
        <mxCell id="14eNBeR4B6eqoO1mEAWG-12" value="airec_server.recommend_result_128" style="rounded=0;whiteSpace=wrap;html=1;fillColor=#f5f5f5;fontColor=#333333;strokeColor=#666666;" vertex="1" parent="1">
          <mxGeometry x="680" y="555" width="260" height="30" as="geometry" />
        </mxCell>
      </root>
    </mxGraphModel>
  </diagram>
  <diagram id="qU9Z41UEzouo1bwgPM2A" name="部署架构">
    <mxGraphModel dx="2375" dy="902" grid="1" gridSize="10" guides="1" tooltips="1" connect="1" arrows="1" fold="1" page="1" pageScale="1" pageWidth="827" pageHeight="1169" math="0" shadow="0">
      <root>
        <mxCell id="0" />
        <mxCell id="1" parent="0" />
        <mxCell id="jJx6ii5_1UGjjFAxgYRW-2" value="" style="rounded=0;whiteSpace=wrap;html=1;fillColor=#dae8fc;strokeColor=#6c8ebf;" vertex="1" parent="1">
          <mxGeometry x="180" y="400" width="260" height="110" as="geometry" />
        </mxCell>
        <mxCell id="jJx6ii5_1UGjjFAxgYRW-7" style="edgeStyle=orthogonalEdgeStyle;rounded=0;orthogonalLoop=1;jettySize=auto;html=1;exitX=1;exitY=0.5;exitDx=0;exitDy=0;entryX=0;entryY=0.5;entryDx=0;entryDy=0;" edge="1" parent="1" source="jJx6ii5_1UGjjFAxgYRW-3" target="jJx6ii5_1UGjjFAxgYRW-5">
          <mxGeometry relative="1" as="geometry" />
        </mxCell>
        <mxCell id="jJx6ii5_1UGjjFAxgYRW-3" value="推荐服务" style="rounded=0;whiteSpace=wrap;html=1;fillColor=#d5e8d4;strokeColor=#82b366;" vertex="1" parent="1">
          <mxGeometry x="-40" y="430" width="120" height="60" as="geometry" />
        </mxCell>
        <mxCell id="jJx6ii5_1UGjjFAxgYRW-4" value="" style="shape=flexArrow;endArrow=classic;html=1;rounded=0;" edge="1" parent="1">
          <mxGeometry width="50" height="50" relative="1" as="geometry">
            <mxPoint x="470" y="457" as="sourcePoint" />
            <mxPoint x="540" y="457" as="targetPoint" />
          </mxGeometry>
        </mxCell>
        <mxCell id="jJx6ii5_1UGjjFAxgYRW-5" value="airec_server.recommend_result" style="rounded=0;whiteSpace=wrap;html=1;fillColor=#d5e8d4;strokeColor=#82b366;" vertex="1" parent="1">
          <mxGeometry x="220" y="445" width="180" height="30" as="geometry" />
        </mxCell>
        <mxCell id="jJx6ii5_1UGjjFAxgYRW-6" value="数据库" style="text;html=1;strokeColor=none;fillColor=none;align=center;verticalAlign=middle;whiteSpace=wrap;rounded=0;" vertex="1" parent="1">
          <mxGeometry x="280" y="400" width="60" height="30" as="geometry" />
        </mxCell>
        <mxCell id="jJx6ii5_1UGjjFAxgYRW-8" value="" style="rounded=0;whiteSpace=wrap;html=1;fillColor=#dae8fc;strokeColor=#6c8ebf;" vertex="1" parent="1">
          <mxGeometry x="780" y="400" width="260" height="340" as="geometry" />
        </mxCell>
        <mxCell id="jJx6ii5_1UGjjFAxgYRW-9" style="edgeStyle=orthogonalEdgeStyle;rounded=0;orthogonalLoop=1;jettySize=auto;html=1;exitX=1;exitY=0.5;exitDx=0;exitDy=0;entryX=0;entryY=0.5;entryDx=0;entryDy=0;" edge="1" source="jJx6ii5_1UGjjFAxgYRW-10" target="jJx6ii5_1UGjjFAxgYRW-11" parent="1">
          <mxGeometry relative="1" as="geometry" />
        </mxCell>
        <mxCell id="jJx6ii5_1UGjjFAxgYRW-10" value="推荐服务" style="rounded=0;whiteSpace=wrap;html=1;fillColor=#d5e8d4;strokeColor=#82b366;" vertex="1" parent="1">
          <mxGeometry x="560" y="430" width="120" height="60" as="geometry" />
        </mxCell>
        <mxCell id="jJx6ii5_1UGjjFAxgYRW-11" value="airec_server.recommend_result" style="rounded=0;whiteSpace=wrap;html=1;fillColor=#d5e8d4;strokeColor=#82b366;" vertex="1" parent="1">
          <mxGeometry x="820" y="445" width="180" height="30" as="geometry" />
        </mxCell>
        <mxCell id="jJx6ii5_1UGjjFAxgYRW-12" value="数据库" style="text;html=1;strokeColor=none;fillColor=none;align=center;verticalAlign=middle;whiteSpace=wrap;rounded=0;" vertex="1" parent="1">
          <mxGeometry x="880" y="400" width="60" height="30" as="geometry" />
        </mxCell>
        <mxCell id="xNdOyh_HfDgpOdQ1B34D-1" value="airec_server.recommend_result_002" style="rounded=0;whiteSpace=wrap;html=1;fillColor=#ffe6cc;strokeColor=#d79b00;" vertex="1" parent="1">
          <mxGeometry x="820" y="560" width="180" height="30" as="geometry" />
        </mxCell>
        <mxCell id="xNdOyh_HfDgpOdQ1B34D-2" value="airec_server.recommend_result_001" style="rounded=0;whiteSpace=wrap;html=1;fillColor=#ffe6cc;strokeColor=#d79b00;" vertex="1" parent="1">
          <mxGeometry x="820" y="500" width="180" height="30" as="geometry" />
        </mxCell>
        <mxCell id="xNdOyh_HfDgpOdQ1B34D-3" value="&lt;b&gt;......&lt;/b&gt;" style="rounded=0;whiteSpace=wrap;html=1;fillColor=#ffe6cc;strokeColor=#d79b00;" vertex="1" parent="1">
          <mxGeometry x="820" y="620" width="180" height="30" as="geometry" />
        </mxCell>
        <mxCell id="xNdOyh_HfDgpOdQ1B34D-4" value="airec_server.recommend_result_128" style="rounded=0;whiteSpace=wrap;html=1;fillColor=#ffe6cc;strokeColor=#d79b00;" vertex="1" parent="1">
          <mxGeometry x="820" y="680" width="180" height="30" as="geometry" />
        </mxCell>
        <mxCell id="xNdOyh_HfDgpOdQ1B34D-5" value="" style="rounded=0;whiteSpace=wrap;html=1;fillColor=#dae8fc;strokeColor=#6c8ebf;" vertex="1" parent="1">
          <mxGeometry x="1390" y="400" width="260" height="340" as="geometry" />
        </mxCell>
        <mxCell id="xNdOyh_HfDgpOdQ1B34D-7" value="推荐服务" style="rounded=0;whiteSpace=wrap;html=1;fillColor=#f5f5f5;strokeColor=#666666;fontColor=#333333;dashed=1;" vertex="1" parent="1">
          <mxGeometry x="1170" y="430" width="120" height="60" as="geometry" />
        </mxCell>
        <mxCell id="xNdOyh_HfDgpOdQ1B34D-8" value="airec_server.recommend_result" style="rounded=0;whiteSpace=wrap;html=1;fillColor=#f5f5f5;fontColor=#333333;strokeColor=#666666;dashed=1;" vertex="1" parent="1">
          <mxGeometry x="1430" y="445" width="180" height="30" as="geometry" />
        </mxCell>
        <mxCell id="xNdOyh_HfDgpOdQ1B34D-9" value="数据库" style="text;html=1;strokeColor=none;fillColor=none;align=center;verticalAlign=middle;whiteSpace=wrap;rounded=0;" vertex="1" parent="1">
          <mxGeometry x="1490" y="400" width="60" height="30" as="geometry" />
        </mxCell>
        <mxCell id="xNdOyh_HfDgpOdQ1B34D-10" value="airec_server.recommend_result_002" style="rounded=0;whiteSpace=wrap;html=1;fillColor=#ffe6cc;strokeColor=#d79b00;" vertex="1" parent="1">
          <mxGeometry x="1430" y="560" width="180" height="30" as="geometry" />
        </mxCell>
        <mxCell id="xNdOyh_HfDgpOdQ1B34D-11" value="airec_server.recommend_result_001" style="rounded=0;whiteSpace=wrap;html=1;fillColor=#ffe6cc;strokeColor=#d79b00;" vertex="1" parent="1">
          <mxGeometry x="1430" y="500" width="180" height="30" as="geometry" />
        </mxCell>
        <mxCell id="xNdOyh_HfDgpOdQ1B34D-12" value="&lt;b&gt;......&lt;/b&gt;" style="rounded=0;whiteSpace=wrap;html=1;fillColor=#ffe6cc;strokeColor=#d79b00;" vertex="1" parent="1">
          <mxGeometry x="1430" y="620" width="180" height="30" as="geometry" />
        </mxCell>
        <mxCell id="xNdOyh_HfDgpOdQ1B34D-13" value="airec_server.recommend_result_128" style="rounded=0;whiteSpace=wrap;html=1;fillColor=#ffe6cc;strokeColor=#d79b00;" vertex="1" parent="1">
          <mxGeometry x="1430" y="680" width="180" height="30" as="geometry" />
        </mxCell>
        <mxCell id="xNdOyh_HfDgpOdQ1B34D-16" style="edgeStyle=orthogonalEdgeStyle;orthogonalLoop=1;jettySize=auto;html=1;exitX=1;exitY=0.5;exitDx=0;exitDy=0;entryX=0;entryY=0.5;entryDx=0;entryDy=0;curved=1;" edge="1" parent="1" source="xNdOyh_HfDgpOdQ1B34D-14" target="xNdOyh_HfDgpOdQ1B34D-11">
          <mxGeometry relative="1" as="geometry" />
        </mxCell>
        <mxCell id="xNdOyh_HfDgpOdQ1B34D-17" style="edgeStyle=orthogonalEdgeStyle;orthogonalLoop=1;jettySize=auto;html=1;exitX=1;exitY=0.5;exitDx=0;exitDy=0;entryX=0;entryY=0.5;entryDx=0;entryDy=0;curved=1;" edge="1" parent="1" source="xNdOyh_HfDgpOdQ1B34D-14" target="xNdOyh_HfDgpOdQ1B34D-10">
          <mxGeometry relative="1" as="geometry" />
        </mxCell>
        <mxCell id="xNdOyh_HfDgpOdQ1B34D-18" style="edgeStyle=orthogonalEdgeStyle;orthogonalLoop=1;jettySize=auto;html=1;exitX=1;exitY=0.5;exitDx=0;exitDy=0;entryX=0;entryY=0.5;entryDx=0;entryDy=0;curved=1;" edge="1" parent="1" source="xNdOyh_HfDgpOdQ1B34D-14" target="xNdOyh_HfDgpOdQ1B34D-12">
          <mxGeometry relative="1" as="geometry" />
        </mxCell>
        <mxCell id="xNdOyh_HfDgpOdQ1B34D-19" style="edgeStyle=orthogonalEdgeStyle;orthogonalLoop=1;jettySize=auto;html=1;exitX=1;exitY=0.5;exitDx=0;exitDy=0;entryX=0;entryY=0.5;entryDx=0;entryDy=0;curved=1;" edge="1" parent="1" source="xNdOyh_HfDgpOdQ1B34D-14" target="xNdOyh_HfDgpOdQ1B34D-13">
          <mxGeometry relative="1" as="geometry" />
        </mxCell>
        <mxCell id="xNdOyh_HfDgpOdQ1B34D-14" value="推荐服务(新镜像)" style="rounded=0;whiteSpace=wrap;html=1;fillColor=#ffe6cc;strokeColor=#d79b00;" vertex="1" parent="1">
          <mxGeometry x="1170" y="555" width="120" height="60" as="geometry" />
        </mxCell>
        <mxCell id="xNdOyh_HfDgpOdQ1B34D-15" value="" style="shape=flexArrow;endArrow=classic;html=1;rounded=0;" edge="1" parent="1">
          <mxGeometry width="50" height="50" relative="1" as="geometry">
            <mxPoint x="1070" y="457" as="sourcePoint" />
            <mxPoint x="1140" y="457" as="targetPoint" />
          </mxGeometry>
        </mxCell>
      </root>
    </mxGraphModel>
  </diagram>
</mxfile>
